# Blender 3.6.4
# www.blender.org
mtllib PatronConductor.mtl

o Light
v -11.128274 6.038172 1.885895
v 11.128274 6.038172 1.885895
v -11.128274 6.038172 -1.829700
v 11.128274 6.038172 -1.829700
vn -0.0000 1.0000 -0.0000
vt 1.000000 0.000000
vt 0.000000 1.000000
vt 0.000000 0.000000
vt 1.000000 1.000000
s 0
usemtl Light
f 2/1/1 3/2/1 1/3/1
f 2/1/1 4/4/1 3/2/1
o Cube
v -17.000000 -17.000000 17.000000
v -17.000000 17.000000 17.000000
v -17.000000 -17.000000 -17.000000
v -17.000000 17.000000 -17.000000
v 17.000000 -17.000000 17.000000
v 17.000000 17.000000 17.000000
v 17.000000 -17.000000 -17.000000
v 17.000000 17.000000 -17.000000
vn -1.0000 -0.0000 -0.0000
vn -0.0000 -0.0000 -1.0000
vn 1.0000 -0.0000 -0.0000
vn -0.0000 -0.0000 1.0000
vn -0.0000 -1.0000 -0.0000
vn -0.0000 1.0000 -0.0000
vt 1.0000 1.0000
vt 0.0000 0.0000
vt 1.0000 0.0000
vt 1.0000 1.0000
vt 0.0000 0.0000
vt 1.0000 0.0000
vt 1.0000 1.0000
vt 0.0000 0.0000
vt 1.0000 0.0000
vt 0.0000 0.0000
vt 1.0000 1.0000
vt 0.0000 1.0000
vt 0.0000 1.0000
vt 1.0000 0.0000
vt 1.0000 1.0000
vt 1.0000 0.0000
vt 0.0000 1.0000
vt 0.0000 0.0000
vt 0.0000 1.0000
vt 0.0000 1.0000
vt 0.0000 1.0000
vt 1.0000 0.0000
vt 0.0000 0.0000
vt 1.0000 1.0000
s 0
usemtl Paredes
f 6/5/2 7/6/2 5/7/2
f 8/8/3 11/9/3 7/10/3
f 12/11/4 9/12/4 11/13/4
f 10/14/5 5/15/5 9/16/5
f 11/17/6 5/18/6 7/19/6
f 8/20/7 10/21/7 12/22/7
f 6/5/2 8/23/2 7/6/2
f 8/8/3 12/24/3 11/9/3
f 12/11/4 10/25/4 9/12/4
f 10/14/5 6/26/5 5/15/5
f 11/17/6 9/27/6 5/18/6
f 8/20/7 6/28/7 10/21/7
