# Blender 3.6.4
# www.blender.org
mtllib Box003.mtl
o Box003
v 0.559004 1.491727 -0.000075
v 1.059004 1.491727 -0.000075
v 1.059004 1.991727 -0.000075
v 0.559004 1.991727 -0.000075
v 1.559004 1.491727 -0.000075
v 1.559004 1.991727 -0.000075
v 1.059004 2.491726 -0.000075
v 0.559004 2.491726 -0.000075
v 1.559004 2.491726 -0.000075
vn -0.0000 -0.0000 1.0000
vt 0.000000 0.000000
vt 0.500000 0.000000
vt 0.500000 0.500000
vt 0.000000 0.500000
vt 1.000000 0.000000
vt 1.000000 0.500000
vt 0.500000 1.000000
vt 0.000000 1.000000
vt 1.000000 1.000000
s 0
usemtl roughness_0.3
f 1/1/1 2/2/1 3/3/1
f 3/3/1 4/4/1 1/1/1
f 2/2/1 5/5/1 6/6/1
f 6/6/1 3/3/1 2/2/1
f 4/4/1 3/3/1 7/7/1
f 7/7/1 8/8/1 4/4/1
f 3/3/1 6/6/1 9/9/1
f 9/9/1 7/7/1 3/3/1
