# Blender 3.6.4
# www.blender.org
mtllib Box005.mtl
o Box005
v -3.680076 0.085812 -0.000075
v -3.180076 0.085812 -0.000075
v -3.180076 0.585812 -0.000075
v -3.680076 0.585812 -0.000075
v -2.680076 0.085812 -0.000075
v -2.680076 0.585812 -0.000075
v -3.180076 1.085812 -0.000075
v -3.680076 1.085812 -0.000075
v -2.680076 1.085812 -0.000075
vn -0.0000 -0.0000 1.0000
vt 0.000000 0.000000
vt 0.500000 0.000000
vt 0.500000 0.500000
vt 0.000000 0.500000
vt 1.000000 0.000000
vt 1.000000 0.500000
vt 0.500000 1.000000
vt 0.000000 1.000000
vt 1.000000 1.000000
s 0
usemtl roughness_0.5
f 1/1/1 2/2/1 3/3/1
f 3/3/1 4/4/1 1/1/1
f 2/2/1 5/5/1 6/6/1
f 6/6/1 3/3/1 2/2/1
f 4/4/1 3/3/1 7/7/1
f 7/7/1 8/8/1 4/4/1
f 3/3/1 6/6/1 9/9/1
f 9/9/1 7/7/1 3/3/1
