# Blender 3.6.4
# www.blender.org
mtllib untitled.mtl
o CornellBox-Empty-CO
v -0.240000 1.980000 0.160000
v -0.240000 1.980000 -0.220000
v 0.230000 1.980000 -0.220000
v 0.230000 1.980000 0.160000
v -1.000000 -0.000000 1.000000
v -1.000000 2.000000 1.000000
v -1.000000 -0.000000 -1.000000
v -1.000000 2.000000 -1.000000
v 1.000000 -0.000000 1.000000
v 1.000000 2.000000 1.000000
v 1.000000 -0.000000 -1.000000
v 1.000000 2.000000 -1.000000
vn -0.0000 -1.0000 -0.0000
vn 1.0000 -0.0000 -0.0000
vn -0.0000 -0.0000 1.0000
vn -1.0000 -0.0000 -0.0000
vn -0.0000 1.0000 -0.0000
vt 0.675183 0.078817
vt 0.738765 0.000176
vt 0.738765 0.078817
vt 0.675183 0.000176
vt 0.375000 0.250000
vt 0.625000 0.000000
vt 0.375000 0.000000
vt 0.375000 0.500000
vt 0.625000 0.250000
vt 0.625000 0.750000
vt 0.625000 0.500000
vt 0.125000 0.750000
vt 0.125000 0.500000
vt 0.875000 0.500000
vt 0.375000 0.750000
vt 0.875000 0.750000
s 0
usemtl floor
f 5/12/5 11/8/5 7/13/5
f 5/12/5 9/15/5 11/8/5
usemtl ceiling
f 10/10/1 8/14/1 12/11/1
f 10/10/1 6/16/1 8/14/1
usemtl backWall
f 11/8/3 8/9/3 7/5/3
f 11/8/3 12/11/3 8/9/3
usemtl rightWall
f 11/8/4 10/10/4 12/11/4
f 11/8/4 9/15/4 10/10/4
usemtl leftWall
f 7/5/2 6/6/2 5/7/2
f 7/5/2 8/9/2 6/6/2
usemtl light
f 2/1/1 4/2/1 1/3/1
f 2/1/1 3/4/1 4/2/1
