# Blender 4.5.1 LTS
# www.blender.org
mtllib skybox.mtl
o Cube.002
v 1.000000 1.000000 -1.000000
v 1.000000 1.000000 1.000000
v -1.000000 1.000000 -1.000000
v -1.000000 1.000000 1.000000
v 1.000000 0.665102 1.000000
v -1.000000 0.665102 1.000000
v -1.000000 0.665102 -1.000000
v 1.000000 0.665102 -1.000000
v 1.000000 1.000000 -1.000000
v 1.000000 1.000000 1.000000
v -1.000000 1.000000 -1.000000
v -1.000000 1.000000 1.000000
v 0.666667 1.000000 -1.000000
v 0.333333 1.000000 -1.000000
v -0.000000 1.000000 -1.000000
v -0.333333 1.000000 -1.000000
v -0.666667 1.000000 -1.000000
v 0.666667 1.000000 1.000000
v 0.333333 1.000000 1.000000
v -0.000000 1.000000 1.000000
v -0.333333 1.000000 1.000000
v -0.666667 1.000000 1.000000
vn -0.0000 -0.0000 -1.0000
vn 1.0000 -0.0000 -0.0000
vn -1.0000 -0.0000 -0.0000
vn -0.0000 -0.0000 1.0000
vn -0.0000 -1.0000 -0.0000
vt 0.250108 0.610851
vt 0.000216 0.610851
vt 0.000216 0.666667
vt 0.250108 0.666667
vt 0.999784 0.610851
vt 0.749892 0.610851
vt 0.749892 0.666667
vt 0.999784 0.666667
vt 0.500000 0.610851
vt 0.500000 0.666667
vt 0.500000 0.944444
vt 0.250108 0.944444
vt 0.250108 1.000000
vt 0.500000 1.000000
vt 0.250108 0.722223
vt 0.500000 0.722223
vt 0.250108 0.777778
vt 0.500000 0.777778
vt 0.250108 0.833333
vt 0.500000 0.833333
vt 0.250108 0.888889
vt 0.500000 0.888889
s 1
usemtl Material.003
f 5/1/1 6/2/1 4/3/1 2/4/1
f 6/5/2 7/6/2 3/7/2 4/8/2
f 8/9/3 5/1/3 2/4/3 1/10/3
f 7/6/4 8/9/4 1/10/4 3/7/4
usemtl Material.002
f 17/11/5 22/12/5 12/13/5 11/14/5
f 9/10/5 10/4/5 18/15/5 13/16/5
f 13/16/5 18/15/5 19/17/5 14/18/5
f 14/18/5 19/17/5 20/19/5 15/20/5
f 15/20/5 20/19/5 21/21/5 16/22/5
f 16/22/5 21/21/5 22/12/5 17/11/5
