# Blender 3.6.4
# www.blender.org
o Plane
v -1.000000 0.000000 1.000000
v 1.000000 0.000000 1.000000
v -1.000000 0.000000 -1.000000
v 1.000000 0.000000 -1.000000
vn -0.0000 1.0000 -0.0000
vt 0.000000 0.000000
vt 1.000000 0.000000
vt 1.000000 1.000000
vt 0.000000 1.000000
s 0
f 1/1/1 2/2/1 4/3/1 3/4/1
o Glass
v -0.630000 0.010321 1.200706
v -0.630000 0.733028 0.168575
v -0.630000 -0.010321 1.186252
v -0.630000 0.712385 0.154120
v 0.630000 0.010321 1.200706
v 0.630000 0.733028 0.168575
v 0.630000 -0.010321 1.186252
v 0.630000 0.712385 0.154120
v -0.555294 0.051947 1.138653
v -0.555294 0.688954 0.228913
v -0.555294 0.670759 0.216173
v 0.555294 0.051947 1.138653
v 0.555294 0.688954 0.228913
v 0.555294 0.033752 1.125913
v 0.555294 0.670759 0.216173
v -0.555294 0.033752 1.125913
vn 1.0000 -0.0000 -0.0000
vn -1.0000 -0.0000 -0.0000
vn -0.0000 0.5736 -0.8192
vn -0.0000 -0.5736 0.8192
vn 0.0200 -0.8190 -0.5735
vn -0.0000 -0.8305 -0.5571
vn -0.0200 -0.8190 -0.5735
vn -0.0000 -0.8075 -0.5898
vn -0.0000 0.8305 0.5571
vn -0.0200 0.8190 0.5735
vn -0.0000 0.8075 0.5898
vn 0.0200 0.8190 0.5735
vt 0.375000 0.000000
vt 0.375000 0.250000
vt 0.625000 0.250000
vt 0.625000 0.000000
vt 0.375000 0.500000
vt 0.375000 0.750000
vt 0.625000 0.750000
vt 0.625000 0.500000
vt 0.125000 0.500000
vt 0.125000 0.750000
vt 0.875000 0.750000
vt 0.875000 0.500000
s 0
f 5/5/2 7/6/2 8/7/2 6/8/2
f 11/9/3 9/10/3 10/11/3 12/12/3
f 7/13/4 5/14/4 9/10/4 11/9/4
f 12/12/5 10/11/5 6/15/5 8/16/5
f 13/5/3 14/8/3 15/7/3 20/6/3
f 18/9/2 19/12/2 17/11/2 16/10/2
f 20/13/5 18/9/5 16/10/5 13/14/5
f 19/12/4 15/16/4 14/15/4 17/11/4
f 9/10/6 16/10/6 17/11/6 10/11/6
f 9/10/7 5/14/7 13/14/7 16/10/7
f 6/8/8 14/8/8 13/5/8 5/14/8
f 6/8/9 10/11/9 17/11/9 14/8/9
f 12/12/10 8/16/10 15/16/10 19/12/10
f 7/6/11 20/6/11 15/7/11 8/16/11
f 7/6/12 11/9/12 18/9/12 20/6/12
f 11/9/13 12/12/13 19/12/13 18/9/13
o RoughnessGlass
v -0.555294 0.688954 0.228913
v 0.555294 0.688954 0.228913
v 0.555294 0.051947 1.138653
v -0.555294 0.670759 0.216173
v -0.555294 0.051947 1.138653
v 0.555294 0.033752 1.125913
v 0.555294 0.670759 0.216173
v -0.555294 0.033752 1.125913
vn -0.0000 0.8192 0.5736
vn -1.0000 -0.0000 -0.0000
vn 1.0000 -0.0000 -0.0000
vn -0.0000 -0.5736 0.8192
vn -0.0000 0.5736 -0.8192
vn -0.0000 -0.8192 -0.5736
vt 0.875000 0.750000
vt 0.375000 0.000000
vt 0.625000 0.750000
vt 0.375000 0.750000
vt 0.125000 0.750000
vt 0.625000 0.000000
vt 0.625000 0.250000
vt 0.375000 0.250000
vt 0.375000 0.500000
vt 0.625000 0.500000
vt 0.125000 0.500000
vt 0.875000 0.500000
s 0
f 21/17/14 25/18/14 22/19/14
f 23/20/14 22/19/14 25/21/14
f 25/18/15 21/22/15 24/23/15 28/24/15
f 26/25/16 27/26/16 22/19/16 23/20/16
f 28/27/17 26/25/17 23/20/17 25/21/17
f 27/26/18 24/28/18 21/17/18 22/19/18
f 27/26/19 28/24/19 24/23/19
f 26/25/19 28/27/19 27/26/19
o Light
v -2.517651 1.029087 -0.322513
v -2.468763 1.029087 0.266820
v -2.163308 1.501612 -0.351908
v -2.114420 1.501612 0.237425
vn -0.7963 0.6013 0.0661
vt 0.000000 0.000000
vt 1.000000 0.000000
vt 1.000000 1.000000
vt 0.000000 1.000000
s 0
f 29/29/20 30/30/20 32/31/20 31/32/20
